HIERARCHY
ROOT hip
{
	OFFSET 0.000000 0.000000 0.000000 
	CHANNELS 6 Xposition Yposition Zposition Xrotation Zrotation Yrotation
	JOINT abdomen
	{
		OFFSET 0.000000 3.402643 0.000000 
		CHANNELS 3 Xrotation Zrotation Yrotation
		JOINT chest
		{
			OFFSET 0.000000 8.438565 -0.680529 
			CHANNELS 3 Xrotation Zrotation Yrotation
			JOINT neck
			{
				OFFSET 0.000000 10.207942 -0.272212 
				CHANNELS 3 Xrotation Zrotation Yrotation
				JOINT head
				{
					OFFSET 0.000000 3.130431 0.000000 
					CHANNELS 3 Xrotation Zrotation Yrotation
					End Site
					{
						OFFSET 0.000000 3.130435 0.000000 
					}
				}
			}
			JOINT lCollar
			{
				OFFSET 3.470700 6.669187 -0.816635 
				CHANNELS 3 Yrotation Zrotation Xrotation
				JOINT lShldr
				{
					OFFSET 3.198488 0.000000 0.000000 
					CHANNELS 3 Zrotation Yrotation Xrotation
					JOINT lForeArm
					{
						OFFSET 10.139888 0.000000 0.000000 
						CHANNELS 3 Yrotation Zrotation Xrotation
						JOINT lHand
						{
							OFFSET 8.370511 0.000000 0.000000 
							CHANNELS 3 Zrotation Yrotation Xrotation
							End Site
							{
								OFFSET 4.083176 0.000000 0.000000 
							}
						}
					}
				}
			}
			JOINT rCollar
			{
				OFFSET -3.470700 6.669187 -0.816635 
				CHANNELS 3 Yrotation Zrotation Xrotation
				JOINT rShldr
				{
					OFFSET -3.198488 0.000000 0.000000 
					CHANNELS 3 Zrotation Yrotation Xrotation
					JOINT rForeArm
					{
						OFFSET -10.139888 0.000000 0.000000 
						CHANNELS 3 Yrotation Zrotation Xrotation
						JOINT rHand
						{
							OFFSET -8.370511 0.000000 0.000000 
							CHANNELS 3 Zrotation Yrotation Xrotation
							End Site
							{
								OFFSET -4.083176 0.000000 0.000000 
							}
						}
					}
				}
			}
		}
	}
	JOINT lThigh
	{
		OFFSET 5.308129 -1.633274 1.361059 
		CHANNELS 3 Xrotation Zrotation Yrotation
		JOINT lShin
		{
			OFFSET -2.041588 -20.007561 0.000000 
			CHANNELS 3 Xrotation Zrotation Yrotation
			JOINT lFoot
			{
				OFFSET 0.000000 -19.190928 -1.224953 
				CHANNELS 3 Xrotation Yrotation Zrotation
				End Site
				{
					OFFSET 0.000000 -2.449906 4.627600 
				}
			}
		}
	}
	JOINT rThigh
	{
		OFFSET -5.308129 -1.633274 1.361059 
		CHANNELS 3 Xrotation Zrotation Yrotation
		JOINT rShin
		{
			OFFSET 2.041588 -20.007561 0.000000 
			CHANNELS 3 Xrotation Zrotation Yrotation
			JOINT rFoot
			{
				OFFSET 0.000000 -19.190928 -1.224953 
				CHANNELS 3 Xrotation Yrotation Zrotation
				End Site
				{
					OFFSET 0.000000 -2.449906 4.627600 
				}
			}
		}
	}
}
MOTION
Frames: 20
Frame Time: 0.033333
-0.267463 49.876781 -0.594904 0.087892 -0.273437 -0.029763 0.000000 0.000000 0.000000 -4.804708 0.165432 0.113048 3.867489 0.244241 0.029658 5.546818 -0.351062 -0.030082 0.118272 10.401793 -3.827994 -22.535439 11.233346 -37.699215 -27.025167 3.839258 21.619051 9.967455 5.875390 -3.313869 0.023491 -8.476418 -3.833926 8.580569 -17.236704 -21.385441 10.625823 0.700381 15.842216 -7.794351 15.787386 -4.533130 4.163939 3.872848 1.444127 1.529899 -3.477038 8.771924 -5.619815 0.052787 -1.137005 3.827225 -5.185565 -4.572399 0.216083 2.726903 -5.259793 -3.398037 -0.110385 3.313402 
-0.241917 49.869488 -0.614185 0.341807 -0.449211 -0.129709 0.000000 0.000000 0.000000 -4.921943 0.301618 0.091214 3.710958 0.237835 0.264087 5.468741 -0.136514 0.105133 0.314678 10.213051 -3.964733 -22.253468 11.195058 -37.283520 -26.963760 3.515046 19.900085 10.793071 5.893923 -3.295604 0.153767 -8.114887 -3.942586 8.373919 -17.247351 -21.453564 10.630587 0.645959 16.236975 -7.720493 15.586712 -4.505319 3.464968 3.847051 1.132623 2.437049 -3.090249 9.023582 -6.053989 0.075926 -1.384069 3.637939 -5.053410 -4.465770 -0.068200 2.741651 -5.355910 -3.212998 -0.112546 3.321181 
-0.204414 49.861549 -0.630845 0.459012 -0.624980 -0.132066 0.000000 0.000000 0.000000 -4.961132 0.505910 0.053743 3.661779 0.215348 0.340235 5.585922 -0.185290 0.136721 0.417749 10.127328 -4.004841 -22.189764 11.021224 -37.219994 -26.761145 3.444417 19.416456 11.343026 5.413793 -3.317505 -0.008439 -8.172945 -3.981614 8.562644 -17.245678 -21.491970 11.070928 0.583679 17.064768 -7.678771 15.697149 -4.505433 2.964926 3.873478 0.957038 3.199752 -2.838781 9.103325 -6.421122 0.082974 -1.542482 3.658103 -4.926526 -4.383788 -0.302410 2.770336 -5.283257 -3.093376 -0.099286 3.335972 
-0.195983 49.855896 -0.644096 0.068361 -0.449219 -0.254519 0.000000 0.000000 0.000000 -4.599686 0.330962 0.237046 3.866448 0.058590 0.527945 5.781243 -0.126799 0.182032 0.323550 9.857020 -3.658296 -22.021952 10.995454 -37.965153 -26.860010 3.918363 21.606260 9.022864 5.751379 -3.343486 0.328699 -8.309669 -3.645419 8.608346 -17.703716 -21.569164 11.118430 0.424075 18.036840 -7.365374 15.894021 -4.462154 3.463681 3.717870 0.982713 2.935260 -2.934751 9.275354 -6.267375 0.082507 -1.456668 3.542494 -5.134354 -4.485697 0.712501 2.731603 -5.043657 -3.610748 -0.107610 3.401278 
-0.173583 49.870495 -0.644851 0.185551 -0.400389 -0.284568 0.000000 0.000000 0.000000 -4.638699 0.194673 0.228345 3.769909 0.192272 0.573410 5.732419 -0.068274 0.306158 0.362764 10.197687 -3.701458 -22.296804 11.190410 -37.589939 -27.028946 3.713254 20.737047 9.550525 5.856270 -3.322450 0.450550 -7.926022 -3.659435 8.269050 -17.658367 -21.442095 10.997365 0.483834 17.448660 -7.661670 15.874475 -4.516336 3.678327 3.650274 0.928471 2.175944 -2.956397 9.344176 -5.869046 0.071158 -1.342812 3.688341 -5.182173 -4.516430 0.088501 2.727375 -5.091986 -3.240143 -0.106076 3.408590 
-0.150681 49.860294 -0.654641 0.107425 -0.439452 -0.352461 0.000000 0.000000 0.000000 -4.541063 0.262844 0.340453 3.808334 0.116221 0.724120 5.800779 -0.068278 0.286546 0.264315 10.074999 -3.599136 -22.190359 11.041036 -37.973602 -26.586451 3.906199 21.464773 10.206485 5.520029 -3.331281 0.473576 -8.367771 -3.590032 8.615967 -17.567364 -21.519629 10.448473 0.358065 18.647213 -8.920609 15.996093 -4.733257 3.521248 3.678585 1.016234 2.749603 -3.031422 9.257217 -6.213350 0.086959 -1.315840 3.549877 -5.218960 -4.562927 0.527172 2.780074 -4.948430 -3.458798 -0.123279 3.424882 
-0.126139 49.864704 -0.677820 -0.009766 -0.302734 -0.419870 0.000000 0.000000 0.000000 -4.345719 0.155801 0.398317 3.808762 0.066213 0.830382 5.839803 -0.312137 0.464286 0.317209 9.914154 -3.419983 -22.099447 11.055035 -37.772427 -26.534014 3.903333 22.054010 12.191751 5.660092 -3.282053 0.637741 -8.217952 -3.399058 8.065450 -17.662624 -21.107336 10.357281 0.498990 18.122955 -9.361018 15.506269 -4.777978 3.860332 3.491458 0.886319 2.174664 -2.993680 9.568546 -5.880748 0.069714 -1.279577 3.543758 -5.388902 -4.677827 0.742073 2.808472 -4.642259 -3.549258 -0.114843 3.418758 
-0.096191 49.861057 -0.693489 0.019532 -0.332031 -0.400561 0.000000 0.000000 0.000000 -4.335960 0.185016 0.376597 3.847618 0.026122 0.983206 5.585936 -0.048760 0.529914 0.204653 9.774030 -3.394361 -22.047220 11.208966 -38.037132 -26.600712 4.095435 23.047297 13.536983 5.903726 -3.229107 0.736391 -8.213689 -3.373915 7.834653 -17.474062 -21.634182 9.815437 0.324322 18.316010 -10.030452 15.441177 -4.881614 3.656060 3.520956 0.927032 2.536029 -3.044182 9.525029 -6.057477 0.069037 -1.259213 3.452985 -5.395466 -4.661010 0.809472 2.794065 -4.715917 -3.544839 -0.117966 3.459688 
-0.049126 49.861549 -0.701605 0.703167 -0.624953 -0.183557 0.000000 0.000000 0.000000 -4.824319 0.369779 0.271526 3.429288 0.474669 0.941597 5.888596 -0.429205 0.733243 0.340335 10.825717 -3.865334 -22.800081 11.199309 -37.672176 -26.536123 3.802494 21.430161 14.666510 6.035051 -3.193509 0.499999 -7.952897 -3.842015 7.311982 -16.853363 -21.510050 8.236103 0.370521 18.040543 -11.195925 15.517659 -5.078528 2.537442 3.777233 0.954911 3.295841 -2.992564 9.192552 -6.370129 0.058366 -1.254427 3.256759 -5.138608 -4.532764 -0.097260 2.868839 -5.223196 -3.103590 -0.119756 3.454310 
-0.025716 49.862312 -0.712944 0.712943 -0.693306 -0.291948 0.000000 0.000000 0.000000 -4.765841 0.544984 0.315894 3.388670 0.279716 1.217854 5.732384 -0.292601 0.795925 0.547831 10.184077 -3.833514 -21.989824 11.198065 -37.437080 -26.366262 3.822083 22.067556 13.333034 6.163120 -3.203278 0.492428 -8.236469 -3.801665 7.336839 -17.027187 -21.720448 8.668606 0.244395 18.675270 -11.343313 14.968940 -5.057567 2.458097 3.814835 1.010468 3.523377 -3.045638 9.216063 -6.528266 0.074379 -1.226526 3.193152 -5.107190 -4.501421 -0.009372 2.876278 -5.227468 -3.138037 -0.101670 3.462080 
0.001466 49.852497 -0.710301 0.800837 -0.673762 -0.380626 0.000000 0.000000 0.000000 -4.795155 0.564424 0.431171 3.310975 0.336907 1.418802 5.771415 -0.399902 0.918220 0.674827 10.644351 -3.852537 -22.285089 11.342045 -37.198837 -26.158468 3.787502 22.394028 12.832155 5.823467 -3.254520 0.537349 -8.240823 -3.820442 6.945578 -16.806608 -21.521067 7.814814 0.325753 18.104212 -12.185308 14.968913 -5.196635 2.293949 3.778177 0.934786 3.610068 -2.985835 9.221035 -6.537285 0.071558 -1.249167 3.032653 -5.158927 -4.461241 0.069057 2.844958 -5.026690 -3.160604 -0.099768 3.515887 
0.013799 49.848591 -0.721226 0.947337 -0.703029 -0.480494 0.000000 0.000000 0.000000 -4.863578 0.632480 0.532124 3.252521 0.386440 1.669555 5.634589 -0.624161 1.126119 0.788302 10.518116 -3.915518 -22.279665 11.317958 -37.571087 -26.295946 3.958887 22.825396 12.441078 5.442935 -3.301733 0.512701 -8.231612 -3.887610 6.594695 -16.918856 -21.189840 7.868411 0.426017 17.734476 -12.986978 14.961359 -5.323332 2.038306 3.805424 0.986327 3.987134 -3.051050 9.155832 -6.830966 0.066728 -1.231030 2.868886 -5.142582 -4.414286 0.040175 2.833962 -5.018604 -3.100495 -0.121171 3.548658 
0.026507 49.844818 -0.720936 0.947326 -0.644443 -0.440453 0.000000 0.000000 0.000000 -4.824487 0.603324 0.583847 3.253316 0.416085 1.753962 5.575932 -0.721648 1.219805 0.932606 10.743023 -3.894195 -22.534203 11.224589 -37.620979 -26.245462 4.059539 23.558100 11.441359 5.127039 -3.338970 0.509951 -8.231187 -3.864692 6.323446 -16.951813 -20.930117 7.347903 0.447392 18.139086 -14.498075 15.039474 -5.572697 2.040181 3.739842 0.931590 3.864297 -3.044939 9.261895 -6.704468 0.072522 -1.217298 2.714249 -5.244261 -4.446752 0.391458 2.831399 -4.996255 -3.298468 -0.113675 3.596133 
0.033678 49.848343 -0.730714 0.869201 -0.673751 -0.322836 0.000000 0.000000 0.000000 -4.717151 0.700744 0.586714 3.369596 0.338616 2.022329 5.331872 -0.565483 1.370214 0.871894 10.531802 -3.797421 -22.219566 11.449772 -37.276989 -26.291933 4.017903 24.108889 10.065664 5.030540 -3.368855 0.439133 -8.616546 -3.778993 6.553114 -17.145716 -20.955528 7.333562 0.363185 18.545107 -14.995667 14.817464 -5.631230 2.079022 3.720594 0.879310 3.860338 -2.991151 9.262919 -6.674753 0.066312 -1.219977 2.885761 -5.197329 -4.478208 0.293040 2.845103 -5.080772 -3.303939 -0.120139 3.572400 
0.034688 49.848217 -0.729581 0.976638 -0.712787 -0.266178 0.000000 0.000000 0.000000 -4.795243 0.661738 0.598789 3.324314 0.621631 2.061903 5.536810 -0.799635 1.556507 0.888169 11.196156 -3.861449 -22.733181 11.747478 -36.904251 -26.476915 3.839548 23.661331 9.938065 4.767149 -3.389293 0.422144 -8.596929 -3.846604 6.432199 -17.176880 -20.810415 7.040980 0.466599 17.489304 -15.506652 14.515935 -5.678118 1.930659 3.784875 0.910061 3.981055 -3.024881 9.059382 -6.753334 0.067313 -1.209123 2.897553 -5.172229 -4.416335 -0.038299 2.835578 -5.189600 -3.078672 -0.100672 3.577924 
0.030658 49.838017 -0.727202 1.074289 -0.654182 -0.080737 0.000000 0.000000 0.000000 -4.873465 0.749235 0.502531 3.293021 0.372649 2.302865 5.410054 -0.458272 1.675959 0.826735 10.192307 -3.929299 -21.778320 11.785425 -36.869728 -26.350109 3.797434 23.376755 9.568295 4.624068 -3.408707 0.089046 -9.093807 -3.932474 6.712862 -17.173567 -21.022076 7.225667 0.423788 17.503330 -16.139132 14.126932 -5.730115 1.716069 3.735224 0.855353 4.174032 -3.003085 8.890885 -6.831167 0.065398 -1.220937 2.508727 -5.204031 -4.428417 0.712388 2.788022 -5.464077 -3.514159 -0.128342 3.634690 
0.027011 49.846458 -0.718958 1.084062 -0.683471 0.065077 0.000000 0.000000 0.000000 -4.892998 0.749213 0.482744 3.304249 0.475250 2.382158 5.380752 -0.468009 1.813460 0.834758 10.749910 -3.958717 -22.310459 11.874677 -36.749298 -26.330196 3.761097 23.339197 9.463280 4.313359 -3.429427 -0.117048 -9.275517 -3.970891 6.706737 -16.936201 -21.371071 6.438605 0.261279 17.838858 -15.636830 14.026574 -5.638904 1.727666 3.739229 0.904308 3.988116 -3.050925 9.185105 -6.675974 0.068026 -1.176492 2.800583 -5.163259 -4.427682 0.126900 2.800486 -5.491493 -3.224211 -0.108848 3.597271 
0.009770 49.853001 -0.703380 1.171930 -0.556524 0.222896 0.000000 0.000000 0.000000 -4.961222 0.612930 0.396016 3.209155 0.551494 2.482536 5.458866 -0.497297 2.058570 0.808789 10.762430 -4.023698 -22.462214 12.037507 -36.779770 -26.398678 3.805141 23.506845 9.750198 4.528971 -3.406894 -0.258361 -9.412053 -4.047266 6.703202 -16.903431 -21.773495 6.235403 0.175610 17.429747 -15.105979 13.683282 -5.510696 2.055970 3.626107 0.705423 3.343948 -2.933468 8.702178 -6.430719 0.078502 -1.224353 2.743472 -5.273005 -4.478209 0.107629 2.779382 -5.550513 -3.254965 -0.116122 3.615749 
-0.006966 49.844818 -0.690620 1.181702 -0.585813 0.397973 0.000000 0.000000 0.000000 -5.010062 0.622612 0.326282 3.287794 0.632205 2.451739 5.283006 -0.623951 2.145573 0.677821 10.909298 -4.059410 -22.584055 12.101542 -36.942326 -26.183262 3.964036 24.169411 9.982274 4.691905 -3.400185 -0.302784 -9.379239 -4.081823 6.341290 -16.849504 -21.459845 5.378050 0.237302 17.305212 -15.235980 13.830526 -5.549652 1.861269 3.703628 0.748850 3.735490 -2.954792 8.393444 -6.665142 0.069072 -1.218704 2.594793 -5.220057 -4.467335 0.498094 2.783679 -5.857901 -3.481784 -0.119942 3.627243 
-0.021313 49.859665 -0.668635 1.357498 -0.605299 0.532429 0.000000 0.000000 0.000000 -5.225012 0.709929 0.237820 3.326297 0.508389 2.518384 5.038912 -0.526324 2.181223 0.566162 10.653700 -4.244391 -22.460701 12.249127 -37.045582 -26.114599 4.150247 25.412737 9.960169 4.729528 -3.390257 -0.442430 -9.722549 -4.285067 6.459229 -16.761026 -21.455107 4.931259 0.260516 17.069313 -15.010635 13.729368 -5.508806 1.951330 3.756766 0.769127 3.189505 -2.974838 8.292061 -6.372523 0.063178 -1.177612 2.780339 -5.171412 -4.458534 -0.202960 2.793046 -5.921965 -3.157449 -0.107706 3.554798 
